<svg width="730" height="118" viewBox="0 0 730 118" fill="none" xmlns="http://www.w3.org/2000/svg">
<path d="M201.44 100.804L177.873 45.5168H190.563L210.504 94.4807L206.792 94.5661L225.784 45.5168H238.992L257.984 94.5661L254.272 94.4807L274.213 45.5168H286.644L263.336 100.804H249.265L230.619 52.8657H234.244L215.511 100.804H201.44Z" fill="#181B2E"/>
<path d="M310.589 101.83C305.179 101.83 300.403 100.975 296.259 99.266C292.173 97.5569 288.979 95.0788 286.677 91.8317C284.375 88.5275 283.224 84.4828 283.224 79.6975C283.224 74.9122 284.375 70.8675 286.677 67.5634C288.979 64.2023 292.173 61.6672 296.259 59.9582C300.403 58.2492 305.179 57.3946 310.589 57.3946C315.999 57.3946 320.718 58.2492 324.747 59.9582C328.833 61.6672 332.027 64.2023 334.329 67.5634C336.631 70.8675 337.782 74.9122 337.782 79.6975C337.782 84.4828 336.631 88.5275 334.329 91.8317C332.027 95.0788 328.833 97.5569 324.747 99.266C320.718 100.975 315.999 101.83 310.589 101.83ZM310.589 93.2843C313.582 93.2843 316.258 92.7716 318.618 91.7462C321.035 90.6638 322.934 89.1257 324.315 87.1318C325.696 85.081 326.387 82.6029 326.387 79.6975C326.387 76.7922 325.696 74.3141 324.315 72.2632C322.934 70.1554 321.063 68.5603 318.704 67.4779C316.344 66.3955 313.639 65.8544 310.589 65.8544C307.597 65.8544 304.892 66.3955 302.475 67.4779C300.057 68.5603 298.129 70.1269 296.691 72.1778C295.309 74.2286 294.619 76.7352 294.619 79.6975C294.619 82.6029 295.309 85.081 296.691 87.1318C298.072 89.1257 299.971 90.6638 302.388 91.7462C304.805 92.7716 307.539 93.2843 310.589 93.2843Z" fill="#181B2E"/>
<path d="M397.742 93.1134L394.202 93.028L408.187 58.3346H420.532L401.627 100.804H391.095L377.282 66.538H381.081L366.837 100.804H356.305L337.918 58.3346H350.262L363.729 93.1134H360.19L372.794 58.3346H385.656L397.742 93.1134Z" fill="#181B2E"/>
<path d="M444.228 100.804V45.5168H482.125C486.442 45.5168 490.182 46.115 493.348 47.3113C496.571 48.4507 499.074 50.2737 500.858 52.7802C502.642 55.2299 503.534 58.3916 503.534 62.2654C503.534 64.8859 503.074 67.1076 502.153 68.9306C501.232 70.7536 499.937 72.2347 498.268 73.3741C496.657 74.5135 494.787 75.3965 492.657 76.0231C490.528 76.5928 488.255 76.9631 485.837 77.134L484.629 76.4504C488.657 76.5073 491.967 76.8491 494.556 77.4758C497.146 78.0455 499.074 79.1278 500.34 80.7229C501.664 82.2611 502.326 84.5683 502.326 87.6445V100.804H490.844V88.4136C490.844 86.3058 490.47 84.6822 489.722 83.5429C488.974 82.3465 487.621 81.5205 485.665 81.0648C483.766 80.609 481.003 80.3811 477.377 80.3811H455.709V100.804H444.228ZM455.709 71.4942H482.125C485.348 71.4942 487.794 70.7251 489.463 69.187C491.19 67.6488 492.053 65.5695 492.053 62.949C492.053 60.4424 491.19 58.534 489.463 57.2237C487.794 55.9135 485.348 55.2583 482.125 55.2583H455.709V71.4942Z" fill="#181B2E"/>
<path d="M550.344 86.7046H561.221C560.761 89.6099 559.524 92.202 557.509 94.4807C555.552 96.7594 552.876 98.5539 549.481 99.8641C546.085 101.174 541.942 101.83 537.05 101.83C531.583 101.83 526.748 100.975 522.547 99.266C518.346 97.5 515.065 94.9649 512.706 91.6608C510.346 88.3566 509.166 84.3689 509.166 79.6975C509.166 75.0262 510.317 71.0384 512.619 67.7343C514.922 64.3732 518.116 61.8096 522.202 60.0436C526.345 58.2776 531.18 57.3946 536.705 57.3946C542.345 57.3946 547.035 58.2776 550.776 60.0436C554.517 61.8096 557.279 64.4871 559.063 68.0761C560.905 71.6081 561.682 76.137 561.394 81.6629H520.475C520.763 83.8277 521.569 85.7931 522.892 87.5591C524.274 89.3251 526.115 90.7208 528.417 91.7462C530.777 92.7716 533.568 93.2843 536.791 93.2843C540.359 93.2843 543.323 92.6862 545.683 91.4899C548.1 90.2366 549.654 88.6415 550.344 86.7046ZM536.187 65.8544C532.043 65.8544 528.676 66.7658 526.086 68.5888C523.497 70.3548 521.828 72.5481 521.079 75.1686H550.258C549.97 72.3202 548.589 70.07 546.114 68.4179C543.697 66.7089 540.388 65.8544 536.187 65.8544Z" fill="#181B2E"/>
<path d="M588.046 101.744C583.787 101.744 579.902 100.833 576.392 99.0096C572.939 97.1297 570.176 94.5376 568.104 91.2335C566.09 87.8724 565.083 83.9986 565.083 79.6121C565.083 75.1116 566.119 71.2093 568.191 67.9052C570.263 64.6011 573.054 62.0375 576.564 60.2145C580.133 58.3346 584.161 57.3946 588.65 57.3946C593.6 57.3946 597.571 58.3916 600.563 60.3854C603.613 62.3223 605.829 64.9713 607.21 68.3324C608.592 71.6935 609.282 75.4534 609.282 79.6121C609.282 82.1187 608.879 84.6822 608.074 87.3027C607.268 89.8663 606.031 92.2589 604.362 94.4807C602.693 96.6454 600.506 98.4114 597.801 99.7787C595.096 101.089 591.844 101.744 588.046 101.744ZM591.672 93.1989C595.067 93.1989 598.002 92.6292 600.477 91.4899C602.952 90.3505 604.851 88.7554 606.174 86.7046C607.498 84.6537 608.16 82.2896 608.16 79.6121C608.16 76.7067 607.469 74.2571 606.088 72.2632C604.764 70.2124 602.865 68.6743 600.391 67.6488C597.973 66.5664 595.067 66.0253 591.672 66.0253C586.895 66.0253 583.183 67.2785 580.535 69.7851C577.888 72.2347 576.564 75.5104 576.564 79.6121C576.564 82.3465 577.198 84.7392 578.464 86.79C579.73 88.7839 581.485 90.3505 583.73 91.4899C586.032 92.6292 588.679 93.1989 591.672 93.1989ZM608.16 58.3346H619.382V100.804H608.937C608.937 100.804 608.851 100.263 608.678 99.1805C608.563 98.0412 608.448 96.617 608.333 94.9079C608.218 93.1989 608.16 91.5183 608.16 89.8663V58.3346Z" fill="#181B2E"/>
<path d="M627.813 41.2443H639.035V100.804H627.813V41.2443Z" fill="#181B2E"/>
<path d="M643.088 58.3346H676.41V66.9652H643.088V58.3346ZM654.138 46.7132H665.361V100.804H654.138V46.7132Z" fill="#181B2E"/>
<path d="M677.066 58.3346H688.979L707.539 99.0951L697.871 100.804L677.066 58.3346ZM729.552 58.3346L699.856 117.894H688.202L700.892 94.4807L717.553 58.3346H729.552Z" fill="#181B2E"/>
<path d="M31.9219 34.2629C31.9219 33.8385 32.09 33.4314 32.3895 33.1307L64.9138 0.472244C65.5409 -0.157416 66.5603 -0.157414 67.1874 0.472246L99.7117 33.1307C100.011 33.4314 100.179 33.8385 100.179 34.2629V62.5367C100.179 63.9677 98.4479 64.6827 97.4382 63.6688L67.1874 33.2933C66.5603 32.6637 65.5409 32.6637 64.9138 33.2933L34.663 63.6688C33.6533 64.6827 31.9219 63.9677 31.9219 62.5367V34.2629Z" fill="#D0A636"/>
<path d="M0 64.5574C0 64.0973 0.197575 63.6593 0.542519 63.3548L20.9614 43.7196C21.9972 42.8051 23.6276 43.5405 23.6276 44.9223V100.583C23.6276 101.47 22.9093 102.188 22.0232 102.188H1.60437C0.718301 102.188 0 101.47 0 100.583V64.5574Z" fill="#181B2E"/>
<path d="M131.912 64.5574C131.912 64.0973 131.715 63.6593 131.37 63.3548L110.951 43.7196C109.915 42.8051 108.285 43.5405 108.285 44.9223V100.583C108.285 101.47 109.003 102.188 109.889 102.188H130.308C131.194 102.188 131.912 101.47 131.912 100.583V64.5574Z" fill="#181B2E"/>
<path d="M99.1704 80.31C99.4572 80.6088 99.6174 81.0069 99.6174 81.4211V100.404C99.6174 101.29 98.8991 102.008 98.013 102.008H33.2743C32.3882 102.008 31.6699 101.29 31.6699 100.404V81.4211C31.6699 81.0069 31.8301 80.6088 32.1169 80.31L64.4863 46.5912C65.1177 45.9335 66.1696 45.9335 66.801 46.5912L99.1704 80.31ZM60.4545 72.5627C59.5685 72.5627 58.8502 73.281 58.8502 74.1671V84.5484C58.8502 85.4345 59.5685 86.1528 60.4545 86.1528H70.8359C71.722 86.1528 72.4403 85.4345 72.4403 84.5484V74.1671C72.4403 73.281 71.722 72.5627 70.8359 72.5627H60.4545Z" fill="#181B2E"/>
</svg>
